<svg width="1221" height="346" viewBox="0 0 1221 346" fill="none" xmlns="http://www.w3.org/2000/svg">
<path d="M374.688 152.006C405.84 165.16 423.147 178.659 423.147 209.118C423.147 242.001 397.187 260 362.919 260C333.844 260 313.769 248.231 302 231.617L328.998 209.811C336.267 220.195 345.959 227.81 361.881 227.81C377.111 227.81 386.803 220.195 386.803 209.811C386.803 197.35 376.765 192.85 360.15 185.581L351.151 181.774C324.845 170.352 307.538 156.506 307.538 126.739C307.538 99.3942 328.306 78.6262 360.843 78.6262C381.265 78.6262 396.84 85.2027 408.263 101.471L382.303 122.931C376.419 113.932 370.188 110.47 360.843 110.47C350.113 110.47 343.19 117.393 343.19 126.046C343.19 137.123 350.113 141.276 365.689 148.199L374.688 152.006ZM555.134 78.6262H589.055V186.274C589.055 227.117 555.826 260 515.329 260C474.485 260 441.603 227.117 441.603 186.274V78.6262H475.177V186.274C475.177 208.426 493.176 226.425 515.329 226.425C537.135 226.425 555.134 208.426 555.134 186.274V78.6262ZM720.697 152.006C740.08 161.006 753.579 180.389 753.579 203.234C753.579 234.732 727.966 260 696.814 260H646.278H624.472V78.9723H656.316H660.123H675.353C703.39 78.9723 726.235 101.471 726.235 129.508C726.235 137.469 724.158 145.084 720.697 152.006ZM660.123 136.777V146.468H675.353C684.699 146.468 692.314 138.853 692.314 129.508C692.314 120.162 684.699 112.547 675.353 112.547H660.123V122.239V136.777ZM696.814 226.079C709.274 226.079 719.658 216.041 719.658 203.234C719.658 190.427 709.274 180.389 696.814 180.389H660.123V226.079H696.814ZM932.528 78.9723H953.988V260H918.682V164.467L881.3 245.462H861.57H841.841L804.458 164.121V260H768.807V78.9723H790.613H804.458L861.57 203.234L918.682 78.9723H932.528ZM1020.79 260H985.14V78.9723H1020.79V260ZM1157.86 78.9723H1193.51V248.924V260H1158.2H1157.86V245.462V243.732L1079.29 138.507V142.661V260H1043.63V78.9723H1079.29L1157.86 184.197V181.774V78.9723Z" fill="white"/>
<circle cx="134.5" cy="173.5" r="134.5" fill="#6DACDF"/>
<path d="M74.3221 232.478L75.224 231.749L99.8815 211.834L100.911 211.003L101.669 212.086C108.146 221.339 116.658 227.998 130.689 227.998C140.086 227.998 146.83 224.742 150.038 219.987C151.455 217.887 152.215 215.458 152.215 212.794C152.215 207.537 150.142 204.005 146.208 200.924C142.171 197.763 136.256 195.141 128.621 191.801C128.618 191.8 128.616 191.798 128.613 191.797L120.408 188.326L120.397 188.322C108.332 183.082 98.1743 177.226 91.039 169.158C83.865 161.046 79.8229 150.789 79.8229 136.925C79.8229 127.596 82.4057 119.053 87.1874 111.961C95.544 99.5663 110.507 91.7494 129.741 91.7494C148.712 91.7494 163.354 97.89 174.06 113.139L174.716 114.073L173.836 114.8L150.127 134.4L149.062 135.28L148.307 134.124C145.687 130.117 143.051 127.437 140.11 125.746C137.18 124.061 133.849 123.303 129.741 123.303C123.796 123.303 119.35 125.754 116.94 129.325C115.593 131.322 114.853 133.706 114.853 136.293C114.853 141.02 116.299 144.155 119.381 146.911C122.57 149.762 127.52 152.219 134.658 155.392L142.866 158.864L74.3221 232.478ZM74.3221 232.478L74.9922 233.424M74.3221 232.478L74.9922 233.424M74.9922 233.424C85.9898 248.95 104.715 259.867 131.637 259.867C152.808 259.867 170.797 252.433 180.427 238.149C185.207 231.06 187.878 222.348 187.878 212.162C187.878 197.984 183.835 187.633 176.087 179.313M74.9922 233.424L176.087 179.313M176.087 179.313C168.393 171.052 157.124 164.884 142.867 158.865L176.087 179.313Z" fill="black" stroke="black" stroke-width="2.47"/>
<path d="M134.214 85.1173C133.804 85.1173 133.42 85.3213 133.19 85.6617L128.717 92.294C128.461 92.6726 128.436 93.1612 128.65 93.5644C128.865 93.9676 129.284 94.2196 129.741 94.2196C148.071 94.2196 161.881 100.092 172.039 114.558C172.272 114.891 172.655 115.087 173.061 115.084C173.467 115.08 173.846 114.876 174.073 114.539L178.547 107.907C178.833 107.483 178.828 106.926 178.534 106.507C167.827 91.2579 153.186 85.1173 134.214 85.1173Z" fill="#72AADD" stroke="black" stroke-width="2.47" stroke-linejoin="round"/>
<path d="M178.547 107.907C178.89 107.398 178.807 106.714 178.353 106.302C177.898 105.889 177.209 105.873 176.736 106.264L153.027 125.864C152.936 125.939 152.856 126.027 152.79 126.125L148.316 132.758C147.973 133.267 148.056 133.95 148.511 134.363C148.965 134.775 149.654 134.791 150.127 134.4L173.836 114.8C173.927 114.725 174.007 114.637 174.073 114.539L178.547 107.907Z" fill="#72AADD" stroke="black" stroke-width="2.47" stroke-linejoin="round"/>
<path d="M87.1962 111.948L87.1961 111.948C87.196 111.948 87.196 111.948 87.1959 111.948L87.1875 111.961L87.1875 111.961C86.817 112.525 86.9681 113.284 87.5292 113.662C88.0905 114.041 88.8511 113.897 89.2353 113.342L89.2354 113.342L89.2437 113.329C89.2437 113.329 89.2437 113.329 89.2437 113.329C89.2438 113.329 89.2438 113.329 89.2438 113.329C89.2439 113.329 89.2441 113.329 89.2442 113.328C97.0724 101.728 111.2 94.2196 129.741 94.2196C130.151 94.2196 130.535 94.0156 130.765 93.6752L135.238 87.0429C135.493 86.6643 135.519 86.1757 135.305 85.7725C135.09 85.3693 134.671 85.1173 134.214 85.1173C114.981 85.1173 100.018 92.9341 91.6611 105.328C91.6611 105.328 91.661 105.328 91.661 105.328L87.1962 111.948L87.1962 111.948Z" fill="#72AADD" stroke="black" stroke-width="2.47" stroke-linejoin="round"/>
<path d="M154.838 127.507C155.116 127.095 155.119 126.556 154.847 126.14C152.093 121.927 149.197 118.918 145.815 116.973C142.423 115.022 138.641 114.201 134.214 114.201C133.804 114.201 133.42 114.405 133.19 114.745L128.717 121.377C128.461 121.756 128.436 122.244 128.65 122.648C128.865 123.051 129.284 123.303 129.741 123.303C133.849 123.303 137.18 124.062 140.11 125.746C143.051 127.437 145.687 130.118 148.307 134.124C148.533 134.47 148.918 134.68 149.331 134.683C149.745 134.686 150.133 134.482 150.364 134.139L154.838 127.507Z" fill="#72AADD" stroke="black" stroke-width="2.47" stroke-linejoin="round"/>
<path d="M135.238 116.126C135.494 115.748 135.519 115.259 135.305 114.856C135.09 114.453 134.671 114.201 134.214 114.201C127.572 114.201 122.3 116.964 119.366 121.311L119.366 121.312L114.893 127.944L114.893 127.944C114.511 128.509 114.66 129.277 115.226 129.658C115.791 130.04 116.559 129.891 116.94 129.325C116.94 129.325 116.94 129.325 116.94 129.325C116.94 129.325 116.941 129.325 116.941 129.325C119.35 125.754 123.796 123.303 129.741 123.303C130.151 123.303 130.535 123.099 130.765 122.758L135.238 116.126Z" fill="#72AADD" stroke="black" stroke-width="2.47" stroke-linejoin="round"/>
<path d="M119.363 121.316L119.363 121.316L114.893 127.943C114.893 127.944 114.893 127.944 114.893 127.944C113.263 130.358 112.384 133.225 112.384 136.293C112.384 136.836 112.738 137.315 113.258 137.474C113.777 137.633 114.339 137.434 114.643 136.984L119.116 130.351C119.254 130.147 119.327 129.907 119.327 129.661C119.327 127.075 120.065 124.693 121.411 122.698C121.411 122.697 121.411 122.697 121.411 122.697C121.411 122.697 121.411 122.697 121.411 122.697C121.411 122.697 121.411 122.697 121.411 122.697L121.414 122.693L121.414 122.693C121.792 122.128 121.642 121.363 121.078 120.983C120.514 120.602 119.749 120.75 119.366 121.311L119.366 121.311L119.363 121.316Z" fill="#72AADD" stroke="black" stroke-width="2.47" stroke-linejoin="round"/>
<path d="M119.327 129.661C119.327 129.118 118.973 128.639 118.453 128.48C117.934 128.321 117.372 128.52 117.068 128.97L112.595 135.603C112.457 135.807 112.384 136.047 112.384 136.293C112.384 141.683 114.099 145.502 117.735 148.752C121.262 151.906 126.583 154.506 133.665 157.654C134.212 157.897 134.855 157.712 135.19 157.216L139.664 150.583C139.868 150.281 139.928 149.903 139.827 149.552C139.726 149.201 139.475 148.912 139.142 148.764C131.998 145.589 127.045 143.131 123.855 140.279C120.773 137.523 119.327 134.387 119.327 129.661Z" fill="#72AADD" stroke="black" stroke-width="2.47" stroke-linejoin="round"/>
<path d="M139.121 148.755C138.577 148.525 137.946 148.712 137.616 149.202L133.143 155.834C132.936 156.14 132.878 156.523 132.983 156.876C133.088 157.23 133.345 157.518 133.685 157.662L141.904 161.14C142.448 161.37 143.079 161.183 143.41 160.693L147.883 154.061C148.089 153.755 148.148 153.372 148.043 153.018C147.938 152.665 147.68 152.376 147.34 152.233L139.121 148.755Z" fill="#72AADD" stroke="black" stroke-width="2.47" stroke-linejoin="round"/>
<path d="M86.5555 130.984C86.6931 130.78 86.7666 130.539 86.7666 130.293C86.7666 121.428 89.2177 113.371 93.7091 106.709C94.0904 106.144 93.9411 105.376 93.3756 104.995C92.8102 104.614 92.0426 104.763 91.6613 105.328L91.6611 105.328C91.6609 105.329 91.6606 105.329 91.6604 105.329L87.1877 111.96L87.1876 111.961C82.4059 119.053 79.8231 127.596 79.8231 136.925C79.8231 137.468 80.1778 137.948 80.697 138.107C81.2163 138.265 81.7783 138.066 82.082 137.616L86.5555 130.984Z" fill="#72AADD" stroke="black" stroke-width="2.47" stroke-linejoin="round"/>
<path d="M147.34 152.232C146.796 152.003 146.166 152.19 145.835 152.68L141.362 159.312C141.155 159.618 141.097 160 141.202 160.354C141.307 160.708 141.565 160.997 141.905 161.14C156.099 167.133 166.958 173.136 174.28 180.997C181.547 188.8 185.408 198.522 185.408 212.162C185.408 212.705 185.762 213.185 186.282 213.344C186.801 213.502 187.363 213.303 187.667 212.853L192.14 206.221C192.278 206.017 192.351 205.776 192.351 205.53C192.351 191.351 188.309 181 180.561 172.681C172.866 164.42 161.597 158.252 147.34 152.232Z" fill="#72AADD" stroke="black" stroke-width="2.47" stroke-linejoin="round"/>
<path d="M126.387 181.247C126.592 180.943 126.651 180.563 126.549 180.211C126.446 179.858 126.192 179.57 125.855 179.424C113.895 174.231 104.137 168.549 97.3629 160.89C90.6277 153.274 86.7666 143.616 86.7666 130.293C86.7666 129.75 86.412 129.271 85.8927 129.112C85.3735 128.953 84.8114 129.152 84.5078 129.603L80.0342 136.235C79.8966 136.439 79.8231 136.679 79.8231 136.926C79.8231 150.789 83.8651 161.047 91.0392 169.158C98.1745 177.226 108.332 183.083 120.398 188.322C120.943 188.559 121.581 188.373 121.913 187.879L126.387 181.247Z" fill="#72AADD" stroke="black" stroke-width="2.47" stroke-linejoin="round"/>
<path d="M192.351 205.53C192.351 204.987 191.997 204.508 191.478 204.349C190.958 204.19 190.396 204.39 190.093 204.84L185.619 211.472C185.481 211.676 185.408 211.916 185.408 212.163C185.408 221.902 182.86 230.123 178.38 236.768C178.38 236.768 178.38 236.768 178.38 236.768C177.999 237.334 178.148 238.101 178.713 238.483C179.279 238.864 180.046 238.715 180.428 238.149L180.428 238.149C180.429 238.148 180.43 238.147 180.43 238.145L184.901 231.517L184.901 231.517C189.681 224.428 192.351 215.716 192.351 205.53Z" fill="#72AADD" stroke="black" stroke-width="2.47" stroke-linejoin="round"/>
<path d="M134.606 184.725C134.812 184.419 134.871 184.036 134.766 183.683C134.661 183.329 134.403 183.04 134.063 182.897L125.844 179.419C125.3 179.189 124.669 179.376 124.339 179.866L119.865 186.498C119.659 186.804 119.6 187.187 119.705 187.54C119.81 187.894 120.068 188.183 120.408 188.326L128.627 191.804C129.171 192.034 129.802 191.847 130.132 191.357L134.606 184.725Z" fill="#72AADD" stroke="black" stroke-width="2.47" stroke-linejoin="round"/>
<path d="M158.947 206.853C159.085 206.649 159.158 206.408 159.158 206.162C159.158 200.039 156.647 195.826 152.204 192.347C147.865 188.95 141.612 186.199 134.077 182.902C133.531 182.663 132.892 182.849 132.558 183.343L128.085 189.975C127.88 190.279 127.82 190.658 127.922 191.01C128.024 191.362 128.278 191.651 128.613 191.797C136.252 195.139 142.17 197.763 146.208 200.924C150.142 204.005 152.215 207.537 152.215 212.795C152.215 213.337 152.569 213.817 153.089 213.976C153.608 214.134 154.17 213.935 154.474 213.485L158.947 206.853Z" fill="#72AADD" stroke="black" stroke-width="2.47" stroke-linejoin="round"/>
<path d="M150.041 219.983C150.041 219.983 150.041 219.983 150.041 219.983C150.041 219.983 150.041 219.984 150.041 219.984L150.038 219.988L150.038 219.988L150.041 219.983ZM150.041 219.983C150.041 219.983 150.041 219.983 150.041 219.983M151.065 220.674L151.062 220.678" fill="#72AADD" stroke="black" stroke-width="2.47" stroke-linejoin="round"/>
<path d="M135.163 221.366C134.752 221.366 134.368 221.57 134.139 221.91L129.665 228.542C129.41 228.921 129.384 229.41 129.599 229.813C129.813 230.216 130.232 230.468 130.689 230.468C140.58 230.468 148.261 227.037 152.086 221.369L152.086 221.369L156.558 214.739C156.558 214.738 156.559 214.737 156.559 214.737L156.559 214.737C156.941 214.171 156.792 213.404 156.226 213.022C155.661 212.641 154.893 212.79 154.512 213.355C151.303 218.11 144.559 221.366 135.163 221.366Z" fill="#72AADD" stroke="black" stroke-width="2.47" stroke-linejoin="round"/>
<path d="M106.143 205.454C105.91 205.121 105.527 204.924 105.121 204.927C104.714 204.931 104.335 205.135 104.107 205.472L99.6339 212.104C99.348 212.528 99.3528 213.084 99.646 213.503C106.446 223.218 115.637 230.468 130.689 230.468C131.1 230.468 131.484 230.264 131.713 229.924L136.187 223.291C136.442 222.913 136.468 222.424 136.253 222.021C136.039 221.618 135.619 221.366 135.163 221.366C121.132 221.366 112.62 214.707 106.143 205.454Z" fill="#72AADD" stroke="black" stroke-width="2.47" stroke-linejoin="round"/>
<path d="M182.853 230.136L182.845 230.148C182.845 230.148 182.845 230.148 182.845 230.149C182.845 230.149 182.845 230.149 182.845 230.149C182.844 230.149 182.844 230.15 182.844 230.15C173.819 243.523 156.761 250.765 136.111 250.765C135.701 250.765 135.317 250.969 135.087 251.309L130.614 257.942C130.358 258.32 130.333 258.809 130.547 259.212C130.762 259.615 131.181 259.867 131.638 259.867C152.808 259.867 170.797 252.433 180.428 238.149L184.892 231.53L184.893 231.53L184.893 231.53C184.893 231.529 184.893 231.529 184.893 231.529L184.901 231.517L184.901 231.517C185.272 230.953 185.121 230.194 184.559 229.815C183.998 229.437 183.238 229.581 182.853 230.136L182.853 230.136Z" fill="#72AADD" stroke="black" stroke-width="2.47" stroke-linejoin="round"/>
<path d="M79.6975 225.117C79.6019 225.194 79.5184 225.286 79.4497 225.387L74.9761 232.02C74.6343 232.526 74.7147 233.207 75.1651 233.62C75.6155 234.034 76.3005 234.055 76.776 233.671L101.433 213.755C101.529 213.678 101.613 213.587 101.681 213.485L106.155 206.853C106.497 206.346 106.416 205.666 105.966 205.252C105.516 204.839 104.831 204.818 104.355 205.202L79.6975 225.117Z" fill="#72AADD" stroke="black" stroke-width="2.47" stroke-linejoin="round"/>
<path d="M137.135 252.691C137.39 252.312 137.416 251.824 137.201 251.42C136.987 251.017 136.568 250.765 136.111 250.765C109.925 250.765 91.98 240.186 81.4813 225.364C81.2469 225.033 80.8649 224.839 80.4594 224.843C80.0539 224.848 79.6765 225.051 79.4497 225.388L74.9761 232.02C74.6888 232.446 74.6952 233.005 74.9922 233.424C85.9898 248.95 104.715 259.867 131.637 259.867C132.048 259.867 132.432 259.663 132.661 259.323L137.135 252.691Z" fill="#72AADD" stroke="black" stroke-width="2.47" stroke-linejoin="round"/>
<mask id="path-24-outside-1_41_8617" maskUnits="userSpaceOnUse" x="76.4736" y="83" width="118" height="172" fill="black">
<rect fill="white" x="76.4736" y="83" width="118" height="172"/>
<path d="M146.859 153.37C175.31 165.383 191.116 177.711 191.116 205.53C191.116 235.562 167.407 252 136.111 252C109.557 252 91.2218 241.252 80.4736 226.078L105.131 206.162C111.77 215.646 120.621 222.601 135.163 222.601C149.072 222.601 157.923 215.646 157.923 206.162C157.923 194.782 148.756 190.672 133.582 184.034L125.363 180.557C101.338 170.124 85.5316 157.48 85.5316 130.293C85.5316 105.32 104.499 86.3522 134.214 86.3522C152.865 86.3522 167.091 92.3586 177.523 107.216L153.814 126.816C148.44 118.597 142.75 115.435 134.214 115.435C124.415 115.435 118.092 121.758 118.092 129.661C118.092 139.777 124.415 143.57 138.64 149.893L146.859 153.37Z"/>
</mask>
<path d="M146.859 153.37C175.31 165.383 191.116 177.711 191.116 205.53C191.116 235.562 167.407 252 136.111 252C109.557 252 91.2218 241.252 80.4736 226.078L105.131 206.162C111.77 215.646 120.621 222.601 135.163 222.601C149.072 222.601 157.923 215.646 157.923 206.162C157.923 194.782 148.756 190.672 133.582 184.034L125.363 180.557C101.338 170.124 85.5316 157.48 85.5316 130.293C85.5316 105.32 104.499 86.3522 134.214 86.3522C152.865 86.3522 167.091 92.3586 177.523 107.216L153.814 126.816C148.44 118.597 142.75 115.435 134.214 115.435C124.415 115.435 118.092 121.758 118.092 129.661C118.092 139.777 124.415 143.57 138.64 149.893L146.859 153.37Z" fill="white"/>
<path d="M146.859 153.37L145.897 155.645L145.898 155.646L146.859 153.37ZM80.4736 226.078L78.9216 224.157L77.1177 225.614L78.4581 227.506L80.4736 226.078ZM105.131 206.162L107.155 204.746L105.637 202.578L103.579 204.241L105.131 206.162ZM133.582 184.034L134.572 181.771L134.558 181.765L134.544 181.759L133.582 184.034ZM125.363 180.557L124.379 182.822L124.39 182.827L124.4 182.831L125.363 180.557ZM177.523 107.216L179.097 109.12L180.856 107.665L179.544 105.797L177.523 107.216ZM153.814 126.816L151.747 128.168L153.258 130.48L155.388 128.72L153.814 126.816ZM138.64 149.893L137.637 152.15L137.657 152.159L137.678 152.167L138.64 149.893ZM145.898 155.646C160.06 161.625 170.715 167.546 177.849 175.206C184.876 182.751 188.646 192.159 188.646 205.53H193.586C193.586 191.082 189.453 180.417 181.464 171.839C173.583 163.377 162.109 157.128 147.82 151.095L145.898 155.646ZM188.646 205.53C188.646 219.827 183.036 230.722 173.808 238.097C164.515 245.524 151.356 249.53 136.111 249.53V254.47C152.162 254.47 166.506 250.257 176.892 241.956C187.342 233.605 193.586 221.265 193.586 205.53H188.646ZM136.111 249.53C110.294 249.53 92.7384 239.12 82.4892 224.65L78.4581 227.506C89.7051 243.384 108.82 254.47 136.111 254.47V249.53ZM82.0256 228L106.683 208.084L103.579 204.241L78.9216 224.157L82.0256 228ZM103.108 207.579C110.07 217.524 119.6 225.071 135.163 225.071V220.131C121.642 220.131 113.47 213.768 107.155 204.746L103.108 207.579ZM135.163 225.071C142.504 225.071 148.75 223.238 153.228 219.923C157.754 216.575 160.393 211.754 160.393 206.162H155.453C155.453 210.054 153.668 213.453 150.29 215.952C146.865 218.486 141.731 220.131 135.163 220.131V225.071ZM160.393 206.162C160.393 199.606 157.663 195.053 152.966 191.375C148.476 187.86 142.055 185.045 134.572 181.771L132.592 186.297C140.283 189.661 146.033 192.221 149.92 195.265C153.6 198.146 155.453 201.338 155.453 206.162H160.393ZM134.544 181.759L126.325 178.282L124.4 182.831L132.62 186.309L134.544 181.759ZM126.347 178.291C114.44 173.121 104.881 167.526 98.288 160.071C91.7721 152.704 88.0016 143.346 88.0016 130.293H83.0616C83.0616 144.427 87.1941 154.984 94.5876 163.344C101.903 171.616 112.261 177.56 124.379 182.822L126.347 178.291ZM88.0016 130.293C88.0016 118.457 92.4837 108.139 100.412 100.766C108.347 93.3872 119.888 88.8222 134.214 88.8222V83.8822C118.825 83.8822 106.025 88.801 97.0476 97.1488C88.0631 105.504 83.0616 117.156 83.0616 130.293H88.0016ZM134.214 88.8222C152.224 88.8222 165.619 94.56 175.502 108.636L179.544 105.797C168.563 90.1571 153.507 83.8822 134.214 83.8822V88.8222ZM175.949 105.313L152.24 124.912L155.388 128.72L179.097 109.12L175.949 105.313ZM155.881 125.464C153.059 121.149 150.034 117.974 146.431 115.902C142.808 113.819 138.801 112.965 134.214 112.965V117.905C138.163 117.905 141.269 118.633 143.968 120.185C146.688 121.748 149.194 124.264 151.747 128.168L155.881 125.464ZM134.214 112.965C123.26 112.965 115.622 120.193 115.622 129.661H120.562C120.562 123.323 125.569 117.905 134.214 117.905V112.965ZM115.622 129.661C115.622 135.382 117.473 139.543 121.385 143.041C125.081 146.345 130.586 149.016 137.637 152.15L139.643 147.636C132.469 144.447 127.7 142.06 124.678 139.358C121.872 136.85 120.562 134.056 120.562 129.661H115.622ZM137.678 152.167L145.897 155.645L147.822 151.095L139.602 147.618L137.678 152.167Z" fill="black" mask="url(#path-24-outside-1_41_8617)"/>
</svg>
