<svg width="1920" height="1080" viewBox="0 0 1920 1080" fill="none" xmlns="http://www.w3.org/2000/svg">
<g clip-path="url(#clip0_43_3)">
<rect width="1080" height="1920" transform="matrix(0 -1 1 0 0 1080)" fill="#6DACDF"/>
<path d="M572.688 519.006C603.84 532.16 621.147 545.659 621.147 576.118C621.147 609.001 595.187 627 560.919 627C531.844 627 511.769 615.231 500 598.617L526.998 576.811C534.267 587.195 543.959 594.81 559.881 594.81C575.111 594.81 584.803 587.195 584.803 576.811C584.803 564.35 574.765 559.85 558.15 552.581L549.151 548.774C522.845 537.352 505.538 523.506 505.538 493.739C505.538 466.394 526.306 445.626 558.843 445.626C579.265 445.626 594.84 452.203 606.263 468.471L580.303 489.931C574.419 480.932 568.188 477.47 558.843 477.47C548.113 477.47 541.19 484.393 541.19 493.046C541.19 504.123 548.113 508.276 563.689 515.199L572.688 519.006ZM753.134 445.626H787.055V553.274C787.055 594.117 753.826 627 713.329 627C672.485 627 639.603 594.117 639.603 553.274V445.626H673.177V553.274C673.177 575.426 691.176 593.425 713.329 593.425C735.135 593.425 753.134 575.426 753.134 553.274V445.626ZM918.697 519.006C938.08 528.006 951.579 547.389 951.579 570.234C951.579 601.732 925.966 627 894.814 627H844.278H822.472V445.972H854.316H858.123H873.353C901.39 445.972 924.235 468.471 924.235 496.508C924.235 504.469 922.158 512.084 918.697 519.006ZM858.123 503.777V513.468H873.353C882.699 513.468 890.314 505.853 890.314 496.508C890.314 487.162 882.699 479.547 873.353 479.547H858.123V489.239V503.777ZM894.814 593.079C907.274 593.079 917.658 583.041 917.658 570.234C917.658 557.427 907.274 547.389 894.814 547.389H858.123V593.079H894.814ZM1130.53 445.972H1151.99V627H1116.68V531.467L1079.3 612.462H1059.57H1039.84L1002.46 531.121V627H966.807V445.972H988.613H1002.46L1059.57 570.234L1116.68 445.972H1130.53ZM1218.79 627H1183.14V445.972H1218.79V627ZM1355.86 445.972H1391.51V615.924V627H1356.2H1355.86V612.462V610.732L1277.29 505.507V509.661V627H1241.63V445.972H1277.29L1355.86 551.197V548.774V445.972Z" fill="white"/>
<path d="M1181.83 668H1176.86V641.834H1188.73C1190.06 641.834 1191.28 642.061 1192.37 642.513C1193.49 642.942 1194.45 643.562 1195.23 644.372C1196.02 645.159 1196.63 646.112 1197.06 647.232C1197.51 648.328 1197.74 649.531 1197.74 650.842C1197.74 652.82 1197.23 654.548 1196.23 656.025C1195.26 657.503 1193.95 658.563 1192.3 659.207C1194.52 662.114 1196.7 665.045 1198.84 668H1192.87C1191.83 666.642 1190.8 665.271 1189.8 663.889C1188.8 662.507 1187.8 661.101 1186.8 659.671H1181.83V668ZM1181.83 655.239H1188.73C1189.18 655.239 1189.64 655.155 1190.12 654.989C1190.62 654.798 1191.06 654.524 1191.44 654.166C1191.83 653.785 1192.13 653.321 1192.37 652.772C1192.64 652.224 1192.77 651.581 1192.77 650.842C1192.77 650.461 1192.72 650.008 1192.62 649.484C1192.53 648.96 1192.34 648.459 1192.05 647.983C1191.77 647.506 1191.36 647.101 1190.84 646.767C1190.31 646.434 1189.61 646.267 1188.73 646.267H1181.83V655.239ZM1207.56 646.267V652.808H1220.21V657.348H1207.56V663.496H1221.82V668H1202.59V641.834H1221.82V646.267H1207.56ZM1252.06 663.425V668.036H1239.05C1236.62 668.036 1234.51 667.69 1232.72 666.999C1230.96 666.284 1229.5 665.331 1228.33 664.139C1227.16 662.924 1226.29 661.506 1225.72 659.886C1225.17 658.265 1224.9 656.538 1224.9 654.703C1224.9 652.868 1225.24 651.14 1225.93 649.52C1226.65 647.899 1227.6 646.493 1228.79 645.302C1230.01 644.086 1231.41 643.133 1233.01 642.442C1234.63 641.727 1236.36 641.37 1238.19 641.37C1240.03 641.37 1241.76 641.727 1243.38 642.442C1245 643.133 1246.4 644.086 1247.6 645.302C1248.81 646.493 1249.76 647.899 1250.45 649.52C1251.17 651.14 1251.53 652.868 1251.53 654.703C1251.53 655.489 1251.43 656.299 1251.24 657.133C1251.07 657.967 1250.79 658.778 1250.38 659.564C1249.98 660.35 1249.45 661.077 1248.81 661.745C1248.19 662.412 1247.42 662.972 1246.49 663.425H1252.06ZM1229.87 654.703C1229.87 655.847 1230.08 656.931 1230.51 657.956C1230.96 658.98 1231.56 659.886 1232.3 660.672C1233.06 661.435 1233.94 662.042 1234.94 662.495C1235.97 662.948 1237.05 663.174 1238.19 663.174C1239.34 663.174 1240.41 662.948 1241.41 662.495C1242.44 662.042 1243.32 661.435 1244.06 660.672C1244.82 659.886 1245.41 658.98 1245.84 657.956C1246.3 656.931 1246.52 655.847 1246.52 654.703C1246.52 653.559 1246.3 652.475 1245.84 651.45C1245.41 650.401 1244.82 649.496 1244.06 648.733C1243.32 647.971 1242.44 647.363 1241.41 646.91C1240.41 646.457 1239.34 646.231 1238.19 646.231C1237.05 646.231 1235.97 646.457 1234.94 646.91C1233.94 647.363 1233.06 647.971 1232.3 648.733C1231.56 649.496 1230.96 650.401 1230.51 651.45C1230.08 652.475 1229.87 653.559 1229.87 654.703ZM1278.19 656.74H1266.5V652.343H1278.19V656.74ZM1312.65 663.568V668H1294.56V663.031C1295.01 662.65 1295.62 662.138 1296.38 661.494C1297.17 660.827 1298.01 660.124 1298.89 659.385C1299.77 658.647 1300.65 657.908 1301.53 657.169C1302.41 656.43 1303.19 655.787 1303.86 655.239C1304.64 654.595 1305.26 654.023 1305.71 653.523C1306.19 652.999 1306.55 652.51 1306.79 652.057C1307.03 651.605 1307.17 651.176 1307.22 650.771C1307.29 650.366 1307.32 649.96 1307.32 649.555C1307.32 648.84 1307.2 648.257 1306.97 647.804C1306.73 647.327 1306.41 646.946 1306 646.66C1305.62 646.374 1305.18 646.171 1304.68 646.052C1304.2 645.933 1303.72 645.874 1303.25 645.874C1302.44 645.874 1301.76 646.076 1301.21 646.481C1300.69 646.862 1300.26 647.303 1299.92 647.804C1299.59 648.304 1299.34 648.781 1299.17 649.234C1299.03 649.686 1298.95 649.96 1298.92 650.056V650.02L1294.1 648.769C1294.26 648.125 1294.56 647.387 1294.99 646.553C1295.44 645.695 1296.04 644.885 1296.78 644.122C1297.52 643.359 1298.42 642.716 1299.49 642.192C1300.57 641.667 1301.82 641.405 1303.25 641.405C1304.8 641.405 1306.14 641.656 1307.29 642.156C1308.43 642.633 1309.37 643.264 1310.11 644.05C1310.87 644.813 1311.43 645.683 1311.79 646.66C1312.15 647.613 1312.33 648.578 1312.33 649.555C1312.33 650.556 1312.2 651.474 1311.93 652.308C1311.7 653.142 1311.33 653.928 1310.83 654.667C1310.35 655.406 1309.77 656.121 1309.07 656.812C1308.41 657.503 1307.64 658.194 1306.79 658.885C1306.45 659.147 1306.06 659.469 1305.61 659.85C1305.18 660.231 1304.7 660.636 1304.18 661.065C1303.68 661.47 1303.15 661.899 1302.6 662.352C1302.08 662.781 1301.57 663.186 1301.07 663.568H1312.65ZM1328.22 668.536C1326.48 668.536 1324.87 668.179 1323.39 667.464C1321.92 666.749 1320.64 665.724 1319.57 664.39C1318.57 663.151 1317.81 661.733 1317.28 660.136C1316.78 658.516 1316.53 656.788 1316.53 654.953C1316.53 652.951 1316.82 651.128 1317.39 649.484C1317.96 647.816 1318.76 646.386 1319.78 645.194C1320.81 644.003 1322.04 643.073 1323.47 642.406C1324.92 641.739 1326.5 641.405 1328.22 641.405C1329.91 641.405 1331.47 641.751 1332.9 642.442C1334.33 643.109 1335.56 644.05 1336.58 645.266C1337.63 646.457 1338.44 647.887 1339.02 649.555C1339.61 651.2 1339.91 652.999 1339.91 654.953C1339.91 656.764 1339.63 658.48 1339.09 660.1C1338.56 661.721 1337.8 663.151 1336.8 664.39C1335.73 665.748 1334.45 666.785 1332.97 667.5C1331.5 668.191 1329.91 668.536 1328.22 668.536ZM1328.22 646.088C1327.46 646.088 1326.68 646.267 1325.9 646.624C1325.11 646.958 1324.4 647.482 1323.75 648.197C1323.13 648.912 1322.62 649.829 1322.21 650.949C1321.81 652.069 1321.61 653.404 1321.61 654.953C1321.61 656.001 1321.74 657.062 1322 658.134C1322.26 659.183 1322.66 660.136 1323.18 660.994C1323.73 661.828 1324.42 662.519 1325.25 663.067C1326.09 663.591 1327.08 663.854 1328.22 663.854C1329.01 663.854 1329.79 663.663 1330.58 663.282C1331.37 662.9 1332.07 662.34 1332.69 661.602C1333.33 660.839 1333.84 659.91 1334.23 658.813C1334.61 657.693 1334.8 656.407 1334.8 654.953C1334.8 653.761 1334.63 652.558 1334.3 651.343C1333.99 650.127 1333.53 649.138 1332.94 648.376C1331.75 646.851 1330.17 646.088 1328.22 646.088ZM1362.29 663.568V668H1344.2V663.031C1344.65 662.65 1345.26 662.138 1346.02 661.494C1346.81 660.827 1347.64 660.124 1348.53 659.385C1349.41 658.647 1350.29 657.908 1351.17 657.169C1352.05 656.43 1352.83 655.787 1353.49 655.239C1354.28 654.595 1354.9 654.023 1355.35 653.523C1355.83 652.999 1356.19 652.51 1356.43 652.057C1356.66 651.605 1356.81 651.176 1356.85 650.771C1356.93 650.366 1356.96 649.96 1356.96 649.555C1356.96 648.84 1356.84 648.257 1356.6 647.804C1356.37 647.327 1356.04 646.946 1355.64 646.66C1355.26 646.374 1354.82 646.171 1354.32 646.052C1353.84 645.933 1353.36 645.874 1352.89 645.874C1352.08 645.874 1351.4 646.076 1350.85 646.481C1350.33 646.862 1349.9 647.303 1349.56 647.804C1349.23 648.304 1348.98 648.781 1348.81 649.234C1348.67 649.686 1348.59 649.96 1348.56 650.056V650.02L1343.74 648.769C1343.9 648.125 1344.2 647.387 1344.63 646.553C1345.08 645.695 1345.68 644.885 1346.42 644.122C1347.16 643.359 1348.06 642.716 1349.13 642.192C1350.21 641.667 1351.46 641.405 1352.89 641.405C1354.44 641.405 1355.78 641.656 1356.93 642.156C1358.07 642.633 1359.01 643.264 1359.75 644.05C1360.51 644.813 1361.07 645.683 1361.43 646.66C1361.79 647.613 1361.97 648.578 1361.97 649.555C1361.97 650.556 1361.84 651.474 1361.57 652.308C1361.33 653.142 1360.97 653.928 1360.46 654.667C1359.99 655.406 1359.4 656.121 1358.71 656.812C1358.05 657.503 1357.28 658.194 1356.43 658.885C1356.09 659.147 1355.7 659.469 1355.25 659.85C1354.82 660.231 1354.34 660.636 1353.82 661.065C1353.32 661.47 1352.79 661.899 1352.24 662.352C1351.72 662.781 1351.21 663.186 1350.71 663.568H1362.29ZM1387.19 657.777V662.209H1384.01V668H1379V662.209H1366.46V657.92L1380.22 641.799H1384.01V657.777H1387.19ZM1379 650.234L1372.85 657.777H1379V650.234ZM1394.73 665.641C1394.73 666.38 1394.46 667.011 1393.94 667.535C1393.44 668.036 1392.82 668.286 1392.08 668.286C1391.37 668.286 1390.75 668.036 1390.22 667.535C1389.72 667.011 1389.47 666.38 1389.47 665.641C1389.47 664.926 1389.72 664.318 1390.22 663.818C1390.75 663.294 1391.37 663.031 1392.08 663.031C1392.82 663.031 1393.44 663.294 1393.94 663.818C1394.46 664.318 1394.73 664.926 1394.73 665.641ZM1416.12 663.568V668H1398.03V663.031C1398.48 662.65 1399.09 662.138 1399.85 661.494C1400.64 660.827 1401.47 660.124 1402.35 659.385C1403.24 658.647 1404.12 657.908 1405 657.169C1405.88 656.43 1406.65 655.787 1407.32 655.239C1408.11 654.595 1408.73 654.023 1409.18 653.523C1409.66 652.999 1410.02 652.51 1410.25 652.057C1410.49 651.605 1410.63 651.176 1410.68 650.771C1410.75 650.366 1410.79 649.96 1410.79 649.555C1410.79 648.84 1410.67 648.257 1410.43 647.804C1410.19 647.327 1409.87 646.946 1409.47 646.66C1409.09 646.374 1408.64 646.171 1408.14 646.052C1407.67 645.933 1407.19 645.874 1406.71 645.874C1405.9 645.874 1405.23 646.076 1404.68 646.481C1404.15 646.862 1403.72 647.303 1403.39 647.804C1403.06 648.304 1402.81 648.781 1402.64 649.234C1402.5 649.686 1402.41 649.96 1402.39 650.056V650.02L1397.56 648.769C1397.73 648.125 1398.03 647.387 1398.46 646.553C1398.91 645.695 1399.51 644.885 1400.24 644.122C1400.98 643.359 1401.89 642.716 1402.96 642.192C1404.03 641.667 1405.28 641.405 1406.71 641.405C1408.26 641.405 1409.61 641.656 1410.75 642.156C1411.9 642.633 1412.84 643.264 1413.58 644.05C1414.34 644.813 1414.9 645.683 1415.26 646.66C1415.62 647.613 1415.79 648.578 1415.79 649.555C1415.79 650.556 1415.66 651.474 1415.4 652.308C1415.16 653.142 1414.79 653.928 1414.29 654.667C1413.82 655.406 1413.23 656.121 1412.54 656.812C1411.87 657.503 1411.11 658.194 1410.25 658.885C1409.92 659.147 1409.53 659.469 1409.07 659.85C1408.64 660.231 1408.17 660.636 1407.64 661.065C1407.14 661.47 1406.62 661.899 1406.07 662.352C1405.55 662.781 1405.03 663.186 1404.53 663.568H1416.12Z" fill="white"/>
</g>
<defs>
<clipPath id="clip0_43_3">
<rect width="1080" height="1920" fill="white" transform="matrix(0 -1 1 0 0 1080)"/>
</clipPath>
</defs>
</svg>
