<svg width="269" height="316" viewBox="0 0 269 316" fill="none" xmlns="http://www.w3.org/2000/svg">
<circle cx="134.5" cy="158.5" r="134.5" fill="#6DACDF"/>
<path d="M74.3221 217.478L75.224 216.749L99.8815 196.834L100.911 196.003L101.669 197.086C108.146 206.339 116.658 212.998 130.689 212.998C140.086 212.998 146.83 209.742 150.038 204.987C151.455 202.887 152.215 200.458 152.215 197.794C152.215 192.537 150.142 189.005 146.208 185.924C142.171 182.763 136.256 180.141 128.621 176.801C128.618 176.8 128.616 176.798 128.613 176.797L120.408 173.326L120.397 173.322C108.332 168.082 98.1743 162.226 91.039 154.158C83.865 146.046 79.8229 135.789 79.8229 121.925C79.8229 112.596 82.4057 104.053 87.1874 96.9605C95.544 84.5663 110.507 76.7494 129.741 76.7494C148.712 76.7494 163.354 82.89 174.06 98.1387L174.716 99.073L173.836 99.8003L150.127 119.4L149.062 120.28L148.307 119.124C145.687 115.117 143.051 112.437 140.11 110.746C137.18 109.061 133.849 108.303 129.741 108.303C123.796 108.303 119.35 110.754 116.94 114.325C115.593 116.322 114.853 118.706 114.853 121.293C114.853 126.02 116.299 129.155 119.381 131.911C122.57 134.762 127.52 137.219 134.658 140.392L142.866 143.864L74.3221 217.478ZM74.3221 217.478L74.9922 218.424M74.3221 217.478L74.9922 218.424M74.9922 218.424C85.9898 233.95 104.715 244.867 131.637 244.867C152.808 244.867 170.797 237.433 180.427 223.149C185.207 216.06 187.878 207.348 187.878 197.162C187.878 182.984 183.835 172.633 176.087 164.313M74.9922 218.424L176.087 164.313M176.087 164.313C168.393 156.052 157.124 149.884 142.867 143.865L176.087 164.313Z" fill="black" stroke="black" stroke-width="2.47"/>
<path d="M178.547 92.9069C178.833 92.4826 178.828 91.9256 178.534 91.5067C167.827 76.2579 153.186 70.1173 134.214 70.1173C133.804 70.1173 133.42 70.3213 133.19 70.6617L128.717 77.294C128.461 77.6726 128.436 78.1612 128.65 78.5644C128.865 78.9676 129.284 79.2196 129.741 79.2196C148.071 79.2196 161.881 85.0916 172.039 99.5583C172.272 99.891 172.655 100.087 173.061 100.084C173.467 100.08 173.846 99.8762 174.073 99.5392L178.547 92.9069Z" fill="#72AADD" stroke="black" stroke-width="2.47" stroke-linejoin="round"/>
<path d="M153.027 110.864C152.936 110.939 152.856 111.027 152.79 111.125L148.316 117.758C147.973 118.267 148.056 118.95 148.511 119.363C148.965 119.775 149.654 119.791 150.127 119.4L173.836 99.8005C173.927 99.7252 174.007 99.6372 174.073 99.5392L178.547 92.9069C178.89 92.3979 178.807 91.714 178.353 91.3016C177.898 90.8891 177.209 90.8733 176.736 91.2644L153.027 110.864Z" fill="#72AADD" stroke="black" stroke-width="2.47" stroke-linejoin="round"/>
<path d="M135.238 72.0429C135.493 71.6643 135.519 71.1757 135.305 70.7725C135.09 70.3693 134.671 70.1173 134.214 70.1173C114.981 70.1173 100.018 77.9341 91.6611 90.3282C91.6611 90.3283 91.661 90.3284 91.661 90.3284L87.1962 96.9477L87.1961 96.9479C86.8147 97.5133 86.9639 98.2809 87.5292 98.6623C88.0946 99.0437 88.8622 98.8947 89.2437 98.3293C89.2437 98.3292 89.2438 98.3292 89.2438 98.3291C89.2439 98.3289 89.2441 98.3287 89.2442 98.3285C97.0724 86.7281 111.2 79.2196 129.741 79.2196C130.151 79.2196 130.535 79.0156 130.765 78.6752L135.238 72.0429Z" fill="#72AADD" stroke="black" stroke-width="2.47" stroke-linejoin="round"/>
<path d="M134.214 99.2005C133.804 99.2005 133.42 99.4046 133.19 99.7449L128.717 106.377C128.461 106.756 128.436 107.244 128.65 107.648C128.865 108.051 129.284 108.303 129.741 108.303C133.849 108.303 137.18 109.062 140.11 110.746C143.051 112.437 145.687 115.118 148.307 119.124C148.533 119.47 148.918 119.68 149.331 119.683C149.745 119.686 150.133 119.482 150.364 119.139L154.838 112.507C155.116 112.095 155.119 111.556 154.847 111.14C152.093 106.927 149.197 103.918 145.815 101.973C142.423 100.022 138.641 99.2005 134.214 99.2005Z" fill="#72AADD" stroke="black" stroke-width="2.47" stroke-linejoin="round"/>
<path d="M119.366 106.311L119.366 106.312L114.893 112.944L114.893 112.944C114.511 113.509 114.66 114.277 115.226 114.658C115.791 115.04 116.559 114.891 116.94 114.325C116.94 114.325 116.94 114.325 116.94 114.325C116.94 114.325 116.941 114.325 116.941 114.325C119.35 110.754 123.796 108.303 129.741 108.303C130.151 108.303 130.535 108.099 130.765 107.758L135.238 101.126C135.494 100.748 135.519 100.259 135.305 99.8557C135.09 99.4525 134.671 99.2005 134.214 99.2005C127.572 99.2005 122.3 101.964 119.366 106.311Z" fill="#72AADD" stroke="black" stroke-width="2.47" stroke-linejoin="round"/>
<path d="M119.116 115.351C119.254 115.147 119.327 114.907 119.327 114.661C119.327 112.075 120.065 109.693 121.411 107.698C121.411 107.697 121.411 107.697 121.411 107.697C121.411 107.697 121.411 107.697 121.411 107.697C121.792 107.131 121.643 106.364 121.078 105.983C120.512 105.601 119.745 105.75 119.363 106.316L119.363 106.316L114.893 112.943C114.893 112.944 114.893 112.944 114.893 112.944C113.263 115.358 112.384 118.225 112.384 121.293C112.384 121.836 112.738 122.315 113.258 122.474C113.777 122.633 114.339 122.434 114.643 121.984L119.116 115.351Z" fill="#72AADD" stroke="black" stroke-width="2.47" stroke-linejoin="round"/>
<path d="M139.664 135.583C139.868 135.281 139.928 134.903 139.827 134.552C139.726 134.201 139.475 133.912 139.142 133.764C131.998 130.589 127.045 128.131 123.855 125.279C120.773 122.523 119.327 119.387 119.327 114.661C119.327 114.118 118.973 113.639 118.453 113.48C117.934 113.321 117.372 113.52 117.068 113.97L112.595 120.603C112.457 120.807 112.384 121.047 112.384 121.293C112.384 126.683 114.099 130.502 117.735 133.752C121.262 136.906 126.583 139.506 133.665 142.654C134.212 142.897 134.855 142.712 135.19 142.216L139.664 135.583Z" fill="#72AADD" stroke="black" stroke-width="2.47" stroke-linejoin="round"/>
<path d="M147.883 139.061C148.089 138.755 148.148 138.372 148.043 138.018C147.938 137.665 147.68 137.376 147.34 137.233L139.121 133.755C138.577 133.525 137.946 133.712 137.616 134.202L133.143 140.834C132.936 141.14 132.878 141.523 132.983 141.876C133.088 142.23 133.345 142.518 133.685 142.662L141.904 146.14C142.448 146.37 143.079 146.183 143.41 145.693L147.883 139.061Z" fill="#72AADD" stroke="black" stroke-width="2.47" stroke-linejoin="round"/>
<path d="M93.7091 91.7092C94.0904 91.1437 93.9411 90.3762 93.3756 89.9949C92.8102 89.6135 92.0426 89.7628 91.6613 90.3282L91.6611 90.3284C91.6609 90.3287 91.6606 90.3291 91.6604 90.3294L87.1877 96.9605L87.1876 96.9607C82.4059 104.053 79.8231 112.596 79.8231 121.925C79.8231 122.468 80.1778 122.948 80.697 123.107C81.2163 123.265 81.7783 123.066 82.082 122.616L86.5555 115.984C86.6931 115.78 86.7666 115.539 86.7666 115.293C86.7666 106.428 89.2177 98.3707 93.7091 91.7092Z" fill="#72AADD" stroke="black" stroke-width="2.47" stroke-linejoin="round"/>
<path d="M192.14 191.221C192.278 191.017 192.351 190.776 192.351 190.53C192.351 176.351 188.309 166 180.561 157.681C172.866 149.42 161.597 143.252 147.34 137.232C146.796 137.003 146.166 137.19 145.835 137.68L141.362 144.312C141.155 144.618 141.097 145 141.202 145.354C141.307 145.708 141.565 145.997 141.905 146.14C156.099 152.133 166.958 158.136 174.28 165.997C181.547 173.8 185.408 183.522 185.408 197.162C185.408 197.705 185.762 198.185 186.282 198.344C186.801 198.502 187.363 198.303 187.667 197.853L192.14 191.221Z" fill="#72AADD" stroke="black" stroke-width="2.47" stroke-linejoin="round"/>
<path d="M86.7666 115.293C86.7666 114.75 86.412 114.271 85.8927 114.112C85.3735 113.953 84.8114 114.152 84.5078 114.603L80.0342 121.235C79.8966 121.439 79.8231 121.679 79.8231 121.926C79.8231 135.789 83.8651 146.047 91.0392 154.158C98.1745 162.226 108.332 168.083 120.398 173.322C120.943 173.559 121.581 173.373 121.913 172.879L126.387 166.247C126.592 165.943 126.651 165.563 126.549 165.211C126.446 164.858 126.192 164.57 125.855 164.424C113.895 159.231 104.137 153.549 97.3629 145.89C90.6277 138.274 86.7666 128.616 86.7666 115.293Z" fill="#72AADD" stroke="black" stroke-width="2.47" stroke-linejoin="round"/>
<path d="M184.901 216.517L184.901 216.517C189.681 209.428 192.351 200.716 192.351 190.53C192.351 189.987 191.997 189.508 191.478 189.349C190.958 189.19 190.396 189.39 190.093 189.84L185.619 196.472C185.481 196.676 185.408 196.916 185.408 197.163C185.408 206.902 182.86 215.123 178.38 221.768C178.38 221.768 178.38 221.768 178.38 221.768C177.999 222.334 178.148 223.101 178.713 223.483C179.279 223.864 180.046 223.715 180.428 223.149L180.428 223.149C180.429 223.148 180.43 223.147 180.43 223.145L184.901 216.517Z" fill="#72AADD" stroke="black" stroke-width="2.47" stroke-linejoin="round"/>
<path d="M125.844 164.419C125.3 164.189 124.669 164.376 124.339 164.866L119.865 171.498C119.659 171.804 119.6 172.187 119.705 172.54C119.81 172.894 120.068 173.183 120.408 173.326L128.627 176.804C129.171 177.034 129.802 176.847 130.132 176.357L134.606 169.725C134.812 169.419 134.871 169.036 134.766 168.683C134.661 168.329 134.403 168.04 134.063 167.897L125.844 164.419Z" fill="#72AADD" stroke="black" stroke-width="2.47" stroke-linejoin="round"/>
<path d="M134.077 167.902C133.531 167.663 132.892 167.849 132.558 168.343L128.085 174.975C127.88 175.279 127.82 175.658 127.922 176.01C128.024 176.362 128.278 176.651 128.613 176.797C136.252 180.139 142.17 182.763 146.208 185.924C150.142 189.005 152.215 192.537 152.215 197.795C152.215 198.337 152.569 198.817 153.089 198.976C153.608 199.134 154.17 198.935 154.474 198.485L158.947 191.853C159.085 191.649 159.158 191.408 159.158 191.162C159.158 185.039 156.647 180.826 152.204 177.347C147.865 173.95 141.612 171.199 134.077 167.902Z" fill="#72AADD" stroke="black" stroke-width="2.47" stroke-linejoin="round"/>
<path d="M159.158 191.162C159.158 190.619 158.804 190.14 158.284 189.981C157.765 189.823 157.203 190.022 156.899 190.472L152.426 197.104C152.288 197.308 152.215 197.549 152.215 197.795C152.215 200.456 151.456 202.884 150.041 204.983C150.041 204.983 150.041 204.983 150.041 204.983C150.041 204.983 150.041 204.983 150.041 204.983C149.66 205.549 149.809 206.316 150.375 206.698C150.94 207.079 151.708 206.93 152.089 206.364L152.089 206.364L156.559 199.737C156.559 199.737 156.559 199.737 156.559 199.737C158.253 197.227 159.158 194.316 159.158 191.162Z" fill="#72AADD" stroke="black" stroke-width="2.47" stroke-linejoin="round"/>
<path d="M156.559 199.737C156.941 199.171 156.792 198.404 156.226 198.022C155.661 197.641 154.893 197.79 154.512 198.355C151.303 203.11 144.559 206.366 135.163 206.366C134.752 206.366 134.368 206.57 134.139 206.91L129.665 213.542C129.41 213.921 129.384 214.41 129.599 214.813C129.813 215.216 130.232 215.468 130.689 215.468C140.58 215.468 148.261 212.037 152.086 206.369L152.086 206.369L156.558 199.739C156.558 199.738 156.559 199.737 156.559 199.737L156.559 199.737Z" fill="#72AADD" stroke="black" stroke-width="2.47" stroke-linejoin="round"/>
<path d="M136.187 208.291C136.442 207.913 136.468 207.424 136.253 207.021C136.039 206.618 135.619 206.366 135.163 206.366C121.132 206.366 112.62 199.707 106.143 190.454C105.91 190.121 105.527 189.924 105.121 189.927C104.714 189.931 104.335 190.135 104.107 190.472L99.6339 197.104C99.348 197.528 99.3528 198.084 99.646 198.503C106.446 208.218 115.637 215.468 130.689 215.468C131.1 215.468 131.484 215.264 131.713 214.924L136.187 208.291Z" fill="#72AADD" stroke="black" stroke-width="2.47" stroke-linejoin="round"/>
<path d="M136.111 235.765C135.701 235.765 135.317 235.969 135.087 236.309L130.614 242.942C130.358 243.32 130.333 243.809 130.547 244.212C130.762 244.615 131.181 244.867 131.638 244.867C152.808 244.867 170.797 237.433 180.428 223.149L184.892 216.53L184.893 216.53C185.274 215.964 185.125 215.197 184.559 214.815C183.994 214.434 183.226 214.583 182.845 215.148C182.845 215.148 182.845 215.149 182.845 215.149C182.844 215.149 182.844 215.15 182.844 215.15C173.819 228.523 156.761 235.765 136.111 235.765Z" fill="#72AADD" stroke="black" stroke-width="2.47" stroke-linejoin="round"/>
<path d="M106.155 191.853C106.497 191.346 106.416 190.666 105.966 190.252C105.516 189.839 104.831 189.818 104.355 190.202L79.6975 210.117C79.6019 210.194 79.5184 210.286 79.4497 210.387L74.9761 217.02C74.6343 217.526 74.7147 218.207 75.1651 218.62C75.6155 219.034 76.3005 219.055 76.776 218.671L101.433 198.755C101.529 198.678 101.613 198.587 101.681 198.485L106.155 191.853Z" fill="#72AADD" stroke="black" stroke-width="2.47" stroke-linejoin="round"/>
<path d="M81.4813 210.364C81.2469 210.033 80.8649 209.839 80.4594 209.843C80.0539 209.848 79.6765 210.051 79.4497 210.388L74.9761 217.02C74.6888 217.446 74.6952 218.005 74.9922 218.424C85.9898 233.95 104.715 244.867 131.637 244.867C132.048 244.867 132.432 244.663 132.661 244.323L137.135 237.691C137.39 237.312 137.416 236.824 137.201 236.42C136.987 236.017 136.568 235.765 136.111 235.765C109.925 235.765 91.98 225.186 81.4813 210.364Z" fill="#72AADD" stroke="black" stroke-width="2.47" stroke-linejoin="round"/>
<mask id="path-23-outside-1_41_8616" maskUnits="userSpaceOnUse" x="76.4736" y="68" width="118" height="172" fill="black">
<rect fill="white" x="76.4736" y="68" width="118" height="172"/>
<path d="M146.859 138.37C175.31 150.383 191.116 162.711 191.116 190.53C191.116 220.562 167.407 237 136.111 237C109.557 237 91.2218 226.252 80.4736 211.078L105.131 191.162C111.77 200.646 120.621 207.601 135.163 207.601C149.072 207.601 157.923 200.646 157.923 191.162C157.923 179.782 148.756 175.672 133.582 169.034L125.363 165.557C101.338 155.124 85.5316 142.48 85.5316 115.293C85.5316 90.3196 104.499 71.3522 134.214 71.3522C152.865 71.3522 167.091 77.3586 177.523 92.2163L153.814 111.816C148.44 103.597 142.75 100.435 134.214 100.435C124.415 100.435 118.092 106.758 118.092 114.661C118.092 124.777 124.415 128.57 138.64 134.893L146.859 138.37Z"/>
</mask>
<path d="M146.859 138.37C175.31 150.383 191.116 162.711 191.116 190.53C191.116 220.562 167.407 237 136.111 237C109.557 237 91.2218 226.252 80.4736 211.078L105.131 191.162C111.77 200.646 120.621 207.601 135.163 207.601C149.072 207.601 157.923 200.646 157.923 191.162C157.923 179.782 148.756 175.672 133.582 169.034L125.363 165.557C101.338 155.124 85.5316 142.48 85.5316 115.293C85.5316 90.3196 104.499 71.3522 134.214 71.3522C152.865 71.3522 167.091 77.3586 177.523 92.2163L153.814 111.816C148.44 103.597 142.75 100.435 134.214 100.435C124.415 100.435 118.092 106.758 118.092 114.661C118.092 124.777 124.415 128.57 138.64 134.893L146.859 138.37Z" fill="white"/>
<path d="M146.859 138.37L145.897 140.645L145.898 140.646L146.859 138.37ZM80.4736 211.078L78.9216 209.157L77.1177 210.614L78.4581 212.506L80.4736 211.078ZM105.131 191.162L107.155 189.746L105.637 187.578L103.579 189.241L105.131 191.162ZM133.582 169.034L134.572 166.771L134.558 166.765L134.544 166.759L133.582 169.034ZM125.363 165.557L124.379 167.822L124.39 167.827L124.4 167.831L125.363 165.557ZM177.523 92.2163L179.097 94.12L180.856 92.6654L179.544 90.7969L177.523 92.2163ZM153.814 111.816L151.747 113.168L153.258 115.48L155.388 113.72L153.814 111.816ZM138.64 134.893L137.637 137.15L137.657 137.159L137.678 137.167L138.64 134.893ZM145.898 140.646C160.06 146.625 170.715 152.546 177.849 160.206C184.876 167.751 188.646 177.159 188.646 190.53H193.586C193.586 176.082 189.453 165.417 181.464 156.839C173.583 148.377 162.109 142.128 147.82 136.095L145.898 140.646ZM188.646 190.53C188.646 204.827 183.036 215.722 173.808 223.097C164.515 230.524 151.356 234.53 136.111 234.53V239.47C152.162 239.47 166.506 235.257 176.892 226.956C187.342 218.605 193.586 206.265 193.586 190.53H188.646ZM136.111 234.53C110.294 234.53 92.7384 224.12 82.4892 209.65L78.4581 212.506C89.7051 228.384 108.82 239.47 136.111 239.47V234.53ZM82.0256 213L106.683 193.084L103.579 189.241L78.9216 209.157L82.0256 213ZM103.108 192.579C110.07 202.524 119.6 210.071 135.163 210.071V205.131C121.642 205.131 113.47 198.768 107.155 189.746L103.108 192.579ZM135.163 210.071C142.504 210.071 148.75 208.238 153.228 204.923C157.754 201.575 160.393 196.754 160.393 191.162H155.453C155.453 195.054 153.668 198.453 150.29 200.952C146.865 203.486 141.731 205.131 135.163 205.131V210.071ZM160.393 191.162C160.393 184.606 157.663 180.053 152.966 176.375C148.476 172.86 142.055 170.045 134.572 166.771L132.592 171.297C140.283 174.661 146.033 177.221 149.92 180.265C153.6 183.146 155.453 186.338 155.453 191.162H160.393ZM134.544 166.759L126.325 163.282L124.4 167.831L132.62 171.309L134.544 166.759ZM126.347 163.291C114.44 158.121 104.881 152.527 98.288 145.071C91.7721 137.704 88.0016 128.346 88.0016 115.293H83.0616C83.0616 129.427 87.1941 139.984 94.5876 148.344C101.903 156.616 112.261 162.56 124.379 167.822L126.347 163.291ZM88.0016 115.293C88.0016 103.457 92.4837 93.1387 100.412 85.7664C108.347 78.3872 119.888 73.8222 134.214 73.8222V68.8822C118.825 68.8822 106.025 73.801 97.0476 82.1488C88.0631 90.5036 83.0616 102.156 83.0616 115.293H88.0016ZM134.214 73.8222C152.224 73.8222 165.619 79.56 175.502 93.6356L179.544 90.7969C168.563 75.1571 153.507 68.8822 134.214 68.8822V73.8222ZM175.949 90.3125L152.24 109.912L155.388 113.72L179.097 94.12L175.949 90.3125ZM155.881 110.464C153.059 106.149 150.034 102.974 146.431 100.902C142.808 98.819 138.801 97.9654 134.214 97.9654V102.905C138.163 102.905 141.269 103.633 143.968 105.185C146.688 106.748 149.194 109.264 151.747 113.168L155.881 110.464ZM134.214 97.9654C123.26 97.9654 115.622 105.193 115.622 114.661H120.562C120.562 108.323 125.569 102.905 134.214 102.905V97.9654ZM115.622 114.661C115.622 120.382 117.473 124.543 121.385 128.041C125.081 131.345 130.586 134.016 137.637 137.15L139.643 132.636C132.469 129.447 127.7 127.06 124.678 124.358C121.872 121.85 120.562 119.056 120.562 114.661H115.622ZM137.678 137.167L145.897 140.645L147.822 136.095L139.602 132.618L137.678 137.167Z" fill="black" mask="url(#path-23-outside-1_41_8616)"/>
</svg>
